<?xml version="1.0" encoding="UTF-8" standalone="no"?>
<!DOCTYPE svg PUBLIC "-//W3C//DTD SVG 20010904//EN"
              "http://www.w3.org/TR/2001/REC-SVG-20010904/DTD/svg10.dtd">

<svg xmlns="http://www.w3.org/2000/svg"
     width="14.2222in" height="14.2222in"
     viewBox="0 0 1024 1024">
  <path id="phone-outline"
        fill="black" stroke="black" stroke-width="1"
        d="M 628.00,111.00
           C 628.00,111.00 650.00,112.00 650.00,112.00
             660.27,112.12 677.42,116.57 687.00,120.45
             704.80,127.66 719.56,139.20 732.56,153.17
             750.38,172.31 760.96,207.08 761.00,233.00
             761.00,233.00 762.00,259.00 762.00,259.00
             762.00,259.00 762.00,720.00 762.00,720.00
             762.00,720.00 762.00,748.00 762.00,748.00
             762.00,748.00 759.26,799.39 755.11,816.00
             752.89,824.86 747.89,840.10 743.68,848.00
             727.90,877.61 699.90,900.22 667.00,907.58
             660.03,909.13 636.00,911.00 636.00,911.00
             636.00,911.00 409.00,911.00 409.00,911.00
             373.04,910.94 339.88,909.42 311.00,884.70
             275.65,854.45 265.96,818.40 262.91,774.00
             262.91,774.00 261.00,253.00 261.00,253.00
             261.00,231.51 260.92,209.64 267.75,189.00
             274.79,167.73 288.30,149.76 306.00,136.24
             315.62,128.88 328.66,122.71 340.00,118.42
             354.53,112.94 357.06,112.93 372.00,111.91
             372.00,111.91 628.00,111.00 628.00,111.00 Z
           M 352.00,174.14
           C 352.00,174.14 339.00,176.77 339.00,176.77
             312.72,184.65 288.04,208.25 288.00,237.00
             288.00,237.00 287.00,724.00 287.00,724.00
             287.00,753.63 282.86,786.74 303.62,810.96
             318.06,827.82 341.34,834.97 363.00,835.00
             363.00,835.00 644.00,835.76 644.00,835.76
             644.00,835.76 681.34,833.86 692.00,829.55
             699.02,826.71 704.23,823.06 710.00,818.25
             728.98,802.42 735.96,780.08 736.00,756.00
             736.00,756.00 736.00,242.00 736.00,242.00
             735.97,220.34 725.72,202.21 709.00,188.81
             702.97,183.98 696.46,179.81 689.00,177.57
             677.00,173.97 586.00,174.00 586.00,174.00
             583.23,174.01 579.56,173.71 577.31,175.60
             574.53,177.95 575.14,181.77 574.91,185.00
             574.63,189.03 573.80,198.52 572.64,202.00
             568.09,215.65 556.26,219.98 543.00,220.00
             543.00,220.00 487.00,220.00 487.00,220.00
             478.17,220.11 472.50,221.53 464.04,216.47
             456.60,212.03 451.08,201.50 450.17,193.00
             449.72,188.79 450.93,180.57 448.26,177.43
             445.85,174.59 441.37,175.01 438.00,175.00
             438.00,175.00 352.00,174.14 352.00,174.14 Z" />
  <path id="screen"
        fill="cyan" stroke="cyan" stroke-width="1"
        d="M 354.00,175.42
           C 364.95,174.09 371.90,175.98 382.00,176.00
             382.00,176.00 426.00,176.00 426.00,176.00
             428.92,176.04 443.99,177.09 445.77,178.17
             449.96,180.73 448.85,186.80 449.04,191.00
             449.31,196.96 451.34,202.93 454.47,208.00
             466.17,226.94 486.05,221.03 504.00,221.00
             504.00,221.00 533.00,221.00 533.00,221.00
             533.00,221.00 545.00,221.68 545.00,221.68
             555.36,220.85 565.10,217.10 570.87,208.00
             574.43,202.38 574.99,195.49 575.00,189.00
             575.01,180.88 573.78,175.39 584.00,175.39
             584.00,175.39 591.00,175.39 591.00,175.39
             591.00,175.39 602.00,176.00 602.00,176.00
             602.00,176.00 655.00,176.00 655.00,176.00
             665.22,176.00 680.34,175.79 690.00,178.77
             707.76,184.25 724.46,202.94 730.94,220.00
             733.81,227.58 734.99,236.91 735.00,245.00
             735.00,245.00 735.00,343.00 735.00,343.00
             735.00,343.00 736.00,358.00 736.00,358.00
             736.00,358.00 736.00,439.00 736.00,439.00
             736.00,439.00 736.00,492.00 736.00,492.00
             736.00,492.00 735.16,505.00 735.16,505.00
             735.16,505.00 735.16,527.00 735.16,527.00
             735.16,527.00 736.00,542.00 736.00,542.00
             736.00,542.00 736.00,555.00 736.00,555.00
             736.00,555.00 735.00,570.00 735.00,570.00
             735.00,570.00 735.00,631.00 735.00,631.00
             734.99,634.78 735.00,640.60 733.02,643.90
             731.31,646.74 726.79,649.18 724.00,651.14
             724.00,651.14 704.00,665.66 704.00,665.66
             704.00,665.66 608.00,734.88 608.00,734.88
             608.00,734.88 580.00,755.28 580.00,755.28
             580.00,755.28 545.00,780.21 545.00,780.21
             545.00,780.21 525.00,794.73 525.00,794.73
             522.12,796.85 517.50,800.98 514.00,801.48
             507.93,802.34 496.07,790.25 491.00,786.48
             491.00,786.48 473.00,773.53 473.00,773.53
             473.00,773.53 428.00,740.35 428.00,740.35
             428.00,740.35 355.00,686.50 355.00,686.50
             355.00,686.50 342.00,677.57 342.00,677.57
             342.00,677.57 321.00,661.45 321.00,661.45
             312.14,654.40 293.66,645.22 289.48,635.00
             287.88,631.09 288.01,628.10 288.00,624.00
             288.00,624.00 288.00,590.00 288.00,590.00
             288.00,590.00 288.92,577.00 288.92,577.00
             288.92,577.00 288.00,564.00 288.00,564.00
             288.00,564.00 288.00,525.00 288.00,525.00
             288.00,525.00 289.00,508.00 289.00,508.00
             289.00,508.00 289.00,487.00 289.00,487.00
             289.00,487.00 288.00,467.00 288.00,467.00
             288.00,467.00 288.96,457.00 288.96,457.00
             288.96,457.00 288.96,445.00 288.96,445.00
             288.96,445.00 288.00,430.00 288.00,430.00
             288.00,430.00 288.00,244.00 288.00,244.00
             288.01,237.79 289.51,225.76 291.55,220.00
             297.96,201.81 316.08,186.10 334.00,179.70
             341.71,176.95 346.19,176.56 354.00,175.42 Z" />
  <path id="screen2"
        fill="white" stroke="white" stroke-width="1"
        d="M 289.00,640.00
           C 296.42,641.51 298.98,645.56 305.00,649.64
             305.00,649.64 341.00,676.12 341.00,676.12
             341.00,676.12 355.00,685.75 355.00,685.75
             355.00,685.75 366.00,694.51 366.00,694.51
             366.00,694.51 388.00,710.29 388.00,710.29
             388.00,710.29 417.00,732.26 417.00,732.26
             417.00,732.26 461.00,763.50 461.00,763.50
             461.00,763.50 495.00,788.81 495.00,788.81
             498.66,791.73 507.83,800.38 512.00,801.08
             516.13,801.77 521.74,796.37 525.00,794.01
             525.00,794.01 539.00,784.11 539.00,784.11
             539.00,784.11 556.00,771.04 556.00,771.04
             556.00,771.04 580.00,754.57 580.00,754.57
             580.00,754.57 616.00,728.52 616.00,728.52
             616.00,728.52 637.00,712.28 637.00,712.28
             637.00,712.28 659.00,697.23 659.00,697.23
             659.00,697.23 681.00,680.67 681.00,680.67
             681.00,680.67 717.00,655.34 717.00,655.34
             719.93,653.31 727.39,647.22 730.85,647.94
             734.55,648.70 733.99,654.17 734.00,657.00
             734.00,657.00 734.00,766.00 734.00,766.00
             733.65,795.47 712.48,823.24 684.00,830.85
             669.69,834.67 645.19,835.00 630.00,835.00
             630.00,835.00 566.00,835.00 566.00,835.00
             566.00,835.00 549.00,834.00 549.00,834.00
             549.00,834.00 362.00,834.00 362.00,834.00
             337.71,833.71 313.40,824.80 299.36,804.00
             288.34,787.68 288.00,768.84 288.00,750.00
             288.00,750.00 288.00,705.00 288.00,705.00
             288.00,705.00 288.00,664.00 288.00,664.00
             288.00,656.79 287.35,646.77 289.00,640.00 Z" />
</svg>
